<svg width="297" height="169" viewBox="0 0 297 169" version="1.1" xmlns="http://www.w3.org/2000/svg" xmlns:xlink="http://www.w3.org/1999/xlink">
<g id="Canvas" fill="none">
<g id="Component">
<g id="Group">
<g id="Budget">
<path d="M 83.328 63.56C 83.328 69 81.408 73.704 77.568 77.672C 73.728 81.576 68.128 84.392 60.768 86.12C 64.736 87.208 67.744 89 69.792 91.496C 71.84 93.928 72.864 96.744 72.864 99.944C 72.864 105 71.264 109.384 68.064 113.096C 64.928 116.808 60.32 119.688 54.24 121.736C 48.16 123.72 40.832 124.712 32.256 124.712C 29.056 124.712 26.496 124.616 24.576 124.424C 24.512 126.216 23.744 127.56 22.272 128.456C 20.8 129.352 18.912 129.8 16.608 129.8C 14.304 129.8 12.704 129.288 11.808 128.264C 10.976 127.24 10.624 125.736 10.752 123.752C 11.328 114.792 12.448 105.416 14.112 95.624C 15.776 85.768 17.888 76.264 20.448 67.112C 20.896 65.512 21.792 64.392 23.136 63.752C 24.48 63.112 26.24 62.792 28.416 62.792C 32.32 62.792 34.272 63.88 34.272 66.056C 34.272 66.952 34.08 67.976 33.696 69.128C 32.032 74.12 30.368 80.904 28.704 89.48C 27.04 97.992 25.856 106.12 25.152 113.864C 28.224 114.12 30.72 114.248 32.64 114.248C 41.6 114.248 48.16 112.968 52.32 110.408C 56.544 107.784 58.656 104.456 58.656 100.424C 58.656 97.608 57.44 95.24 55.008 93.32C 52.64 91.4 48.64 90.344 43.008 90.152C 41.728 90.088 40.832 89.768 40.32 89.192C 39.808 88.616 39.552 87.688 39.552 86.408C 39.552 84.552 39.936 83.048 40.704 81.896C 41.472 80.744 42.88 80.136 44.928 80.072C 49.472 79.944 53.568 79.272 57.216 78.056C 60.928 76.84 63.84 75.144 65.952 72.968C 68.064 70.728 69.12 68.136 69.12 65.192C 69.12 61.48 67.296 58.568 63.648 56.456C 60 54.28 54.4 53.192 46.848 53.192C 40 53.192 33.376 54.088 26.976 55.88C 20.576 57.608 15.136 59.816 10.656 62.504C 8.608 63.72 6.88 64.328 5.472 64.328C 4.32 64.328 3.424 63.944 2.784 63.176C 2.208 62.344 1.92 61.32 1.92 60.104C 1.92 58.504 2.24 57.128 2.88 55.976C 3.584 54.824 5.216 53.512 7.776 52.04C 13.152 48.968 19.456 46.568 26.688 44.84C 33.92 43.112 41.312 42.248 48.864 42.248C 60.448 42.248 69.088 44.2 74.784 48.104C 80.48 52.008 83.328 57.16 83.328 63.56ZM 91.9313 125.48C 89.0512 125.48 86.6832 124.168 84.8272 121.544C 83.0352 118.856 82.1393 115.528 82.1393 111.56C 82.1393 106.76 82.4592 102.376 83.0992 98.408C 83.7393 94.376 84.7953 90.12 86.2672 85.64C 86.9073 83.72 87.8033 82.344 88.9553 81.512C 90.1072 80.68 91.9312 80.264 94.4272 80.264C 95.8352 80.264 96.7952 80.488 97.3073 80.936C 97.8833 81.384 98.1713 82.056 98.1713 82.952C 98.1713 83.464 97.8193 85.192 97.1152 88.136C 96.4753 90.504 95.9633 92.648 95.5792 94.568C 94.2992 101.288 93.6592 105.768 93.6592 108.008C 93.6592 109.352 93.8192 110.312 94.1392 110.888C 94.4592 111.4 94.9713 111.656 95.6752 111.656C 96.6352 111.656 97.8192 110.696 99.2272 108.776C 100.699 106.856 102.235 103.944 103.835 100.04C 105.499 96.136 107.099 91.336 108.635 85.64C 109.147 83.72 109.915 82.344 110.939 81.512C 112.027 80.68 113.627 80.264 115.739 80.264C 117.211 80.264 118.235 80.456 118.811 80.84C 119.387 81.16 119.675 81.8 119.675 82.76C 119.675 84.36 118.875 88.744 117.275 95.912C 115.483 104.104 114.587 109.16 114.587 111.08C 114.587 112.296 114.843 113.256 115.355 113.96C 115.867 114.6 116.539 114.92 117.371 114.92C 118.651 114.92 120.155 114.152 121.883 112.616C 123.675 111.016 126.043 108.456 128.987 104.936C 129.755 104.04 130.619 103.592 131.579 103.592C 132.411 103.592 133.051 103.976 133.499 104.744C 134.011 105.512 134.267 106.568 134.267 107.912C 134.267 110.472 133.659 112.456 132.443 113.864C 129.691 117.256 126.715 120.04 123.515 122.216C 120.379 124.392 116.795 125.48 112.763 125.48C 109.691 125.48 107.419 124.296 105.947 121.928C 104.539 119.56 103.835 116.232 103.835 111.944C 102.747 116.296 101.115 119.656 98.9393 122.024C 96.7632 124.328 94.4272 125.48 91.9313 125.48ZM 181.011 103.592C 181.843 103.592 182.483 103.976 182.931 104.744C 183.443 105.512 183.699 106.568 183.699 107.912C 183.699 110.472 183.091 112.456 181.875 113.864C 179.251 117.064 176.371 119.816 173.235 122.12C 170.099 124.36 166.995 125.48 163.923 125.48C 159.059 125.48 155.347 122.632 152.787 116.936C 150.099 120.328 147.731 122.6 145.683 123.752C 143.699 124.904 141.363 125.48 138.675 125.48C 134.771 125.48 131.539 124.04 128.979 121.16C 126.483 118.216 125.235 114.408 125.235 109.736C 125.235 104.616 126.323 99.88 128.499 95.528C 130.675 91.112 133.651 87.528 137.427 84.776C 141.267 81.96 145.555 80.296 150.291 79.784C 151.507 67.368 153.811 56.776 157.203 48.008C 160.659 39.176 165.171 34.76 170.739 34.76C 173.491 34.76 175.763 36.008 177.555 38.504C 179.411 41 180.339 44.776 180.339 49.832C 180.339 57 178.579 65.384 175.059 74.984C 171.539 84.584 166.835 94.44 160.947 104.552C 161.203 108.264 161.747 110.92 162.579 112.52C 163.475 114.12 164.595 114.92 165.939 114.92C 167.667 114.92 169.427 114.152 171.219 112.616C 173.011 111.08 175.411 108.52 178.419 104.936C 179.187 104.04 180.051 103.592 181.011 103.592ZM 169.683 44.168C 168.467 44.168 167.251 46.344 166.035 50.696C 164.819 54.984 163.763 60.616 162.867 67.592C 162.035 74.568 161.427 81.864 161.043 89.48C 168.211 73.864 171.795 61.32 171.795 51.848C 171.795 49.416 171.571 47.528 171.123 46.184C 170.739 44.84 170.259 44.168 169.683 44.168ZM 142.035 115.784C 143.251 115.784 144.467 115.304 145.683 114.344C 146.899 113.32 148.435 111.464 150.291 108.776C 149.651 105.32 149.331 101.448 149.331 97.16C 149.331 95.624 149.395 93.128 149.523 89.672C 146.003 90.76 143.059 93.128 140.691 96.776C 138.387 100.36 137.235 104.36 137.235 108.776C 137.235 113.448 138.835 115.784 142.035 115.784ZM 224.104 103.784C 224.936 103.784 225.576 104.2 226.024 105.032C 226.536 105.8 226.792 106.792 226.792 108.008C 226.792 109.48 226.568 110.632 226.12 111.464C 225.672 112.296 224.968 113.032 224.008 113.672C 218.504 117.384 214.472 120.136 211.912 121.928L 205.768 126.056C 203.336 139.304 200.136 149.704 196.168 157.256C 192.264 164.872 187.272 168.68 181.192 168.68C 177.928 168.68 175.272 167.656 173.224 165.608C 171.176 163.624 170.152 161 170.152 157.736C 170.152 153.192 171.944 148.296 175.528 143.048C 179.112 137.864 185.832 131.464 195.688 123.848L 196.264 120.104C 195.176 121.832 193.736 123.176 191.944 124.136C 190.216 125.032 188.488 125.48 186.76 125.48C 182.792 125.48 179.624 124.04 177.256 121.16C 174.888 118.28 173.704 114.504 173.704 109.832C 173.704 104.712 174.888 99.88 177.256 95.336C 179.624 90.728 182.76 87.048 186.664 84.296C 190.632 81.48 194.824 80.072 199.24 80.072C 200.648 80.072 201.576 80.36 202.024 80.936C 202.536 81.448 202.952 82.408 203.272 83.816C 204.488 83.56 205.896 83.432 207.496 83.432C 209.096 83.432 210.216 83.688 210.856 84.2C 211.56 84.648 211.912 85.576 211.912 86.984C 211.912 87.752 211.88 88.36 211.816 88.808C 211.56 90.792 210.76 95.816 209.416 103.88C 209.16 105.416 208.872 107.112 208.552 108.968C 208.296 110.76 208.008 112.68 207.688 114.728C 212.616 110.888 217.352 107.496 221.896 104.552C 222.728 104.04 223.464 103.784 224.104 103.784ZM 190.216 115.784C 191.688 115.784 193.096 114.888 194.44 113.096C 195.784 111.304 196.744 108.744 197.32 105.416L 200.392 89C 197.768 89.064 195.336 90.088 193.096 92.072C 190.856 93.992 189.064 96.552 187.72 99.752C 186.376 102.952 185.704 106.344 185.704 109.928C 185.704 111.912 186.088 113.384 186.856 114.344C 187.688 115.304 188.808 115.784 190.216 115.784ZM 182.248 159.368C 183.848 159.368 185.64 157.448 187.624 153.608C 189.672 149.768 191.624 143.656 193.48 135.272C 188.552 139.496 185 143.304 182.824 146.696C 180.648 150.088 179.56 153.064 179.56 155.624C 179.56 156.712 179.752 157.608 180.136 158.312C 180.584 159.016 181.288 159.368 182.248 159.368ZM 263.705 103.592C 264.537 103.592 265.177 103.976 265.625 104.744C 266.137 105.512 266.393 106.568 266.393 107.912C 266.393 110.472 265.785 112.456 264.569 113.864C 262.201 116.744 258.841 119.4 254.489 121.832C 250.201 124.264 245.593 125.48 240.665 125.48C 233.945 125.48 228.729 123.656 225.017 120.008C 221.305 116.36 219.449 111.368 219.449 105.032C 219.449 100.616 220.377 96.52 222.233 92.744C 224.089 88.904 226.649 85.864 229.913 83.624C 233.241 81.384 236.985 80.264 241.145 80.264C 244.857 80.264 247.833 81.384 250.073 83.624C 252.313 85.8 253.433 88.776 253.433 92.552C 253.433 96.968 251.833 100.776 248.633 103.976C 245.497 107.112 240.153 109.608 232.601 111.464C 234.201 114.408 237.241 115.88 241.721 115.88C 244.601 115.88 247.865 114.888 251.513 112.904C 255.225 110.856 258.425 108.2 261.113 104.936C 261.881 104.04 262.745 103.592 263.705 103.592ZM 239.513 89.672C 237.145 89.672 235.129 91.048 233.465 93.8C 231.865 96.552 231.065 99.88 231.065 103.784L 231.065 103.976C 234.841 103.08 237.817 101.736 239.993 99.944C 242.169 98.152 243.257 96.072 243.257 93.704C 243.257 92.488 242.905 91.528 242.201 90.824C 241.561 90.056 240.665 89.672 239.513 89.672ZM 274.417 89.384C 274.289 92.584 274.225 95.08 274.225 96.872C 274.225 101.48 274.449 105.096 274.897 107.72C 275.409 110.28 276.209 112.136 277.297 113.288C 278.449 114.376 280.017 114.92 282.001 114.92C 283.025 114.92 284.241 114.6 285.649 113.96C 287.057 113.32 288.337 112.488 289.489 111.464C 290.193 110.824 290.897 110.504 291.601 110.504C 292.369 110.504 292.977 110.952 293.425 111.848C 293.937 112.68 294.193 113.704 294.193 114.92C 294.193 116.136 293.937 117.32 293.425 118.472C 292.977 119.624 292.273 120.584 291.313 121.352C 287.985 124.104 284.209 125.48 279.985 125.48C 273.905 125.48 269.457 122.952 266.641 117.896C 263.825 112.776 262.417 106.12 262.417 97.928C 262.417 95.112 262.513 92.264 262.705 89.384L 258.961 89.384C 257.041 89.384 255.729 89.032 255.025 88.328C 254.385 87.624 254.065 86.504 254.065 84.968C 254.065 81.384 255.505 79.592 258.385 79.592L 263.857 79.592C 264.945 72.552 266.609 66.12 268.849 60.296C 271.089 54.472 273.777 49.832 276.913 46.376C 280.113 42.92 283.537 41.192 287.185 41.192C 289.873 41.192 291.985 42.376 293.521 44.744C 295.057 47.112 295.825 50.088 295.825 53.672C 295.825 63.592 291.665 72.232 283.345 79.592L 294.097 79.592C 295.121 79.592 295.857 79.816 296.305 80.264C 296.753 80.712 296.977 81.544 296.977 82.76C 296.977 87.176 293.361 89.384 286.129 89.384L 274.417 89.384ZM 284.593 50.408C 283.633 50.408 282.545 51.624 281.329 54.056C 280.177 56.424 279.057 59.752 277.969 64.04C 276.945 68.264 276.081 72.968 275.377 78.152C 279.153 74.888 281.969 71.24 283.825 67.208C 285.745 63.112 286.705 59.4 286.705 56.072C 286.705 52.296 286.001 50.408 284.593 50.408Z" fill="black"/>
</g>
<g id="Rectangle">
<rect width="7" height="16.7809" rx="3.5" transform="matrix(0.985737 0.168295 -0.168295 0.985737 43.5591 32)" fill="black"/>
</g>
<g id="Rectangle_2">
<rect width="7" height="16.4942" rx="3.5" transform="matrix(0.985737 0.168295 -0.168295 0.985737 28.7759 120)" fill="black"/>
</g>
<g id="Rectangle_3">
<rect width="7" height="15.1305" rx="3.5" transform="matrix(0.985737 0.168295 -0.168295 0.985737 41.4696 119.933)" fill="black"/>
</g>
<g id="Rectangle_4">
<rect width="7" height="16.741" rx="3.5" transform="matrix(0.985737 0.168295 -0.168295 0.985737 56.4758 31.5316)" fill="black"/>
</g>
</g>
</g>
</g>
</svg>

